<?xml version="1.0" encoding="iso-8859-1"?>
<!-- Uploaded to: SVG Repo, www.svgrepo.com, Generator: SVG Repo Mixer Tools -->
<svg fill="#000000" height="800px" width="800px" version="1.1" id="Layer_1" xmlns="http://www.w3.org/2000/svg" xmlns:xlink="http://www.w3.org/1999/xlink" 
	 viewBox="0 0 512 512" xml:space="preserve">
<g transform="translate(0 1)">
	<g>
		<g>
			<path d="M392.425,212.333c-7.68,0-15.36,2.56-21.333,7.68v-7.68c0-11.093-5.12-23.04-13.653-31.573
				c-6.827-6.827-15.36-11.093-24.747-11.093c-7.68,0-15.36,2.56-21.333,7.68c-0.853-11.093-5.12-22.187-13.653-30.72
				c-6.827-6.827-15.36-11.093-24.747-11.093c-7.68,0-15.36,2.56-21.333,7.68v-33.28c0-20.48-16.213-42.667-38.4-42.667
				c-22.187,0-38.4,22.187-38.4,42.667v128.853c-7.68-16.213-17.92-31.573-28.16-41.813c-13.653-13.653-40.96-14.507-56.32-1.707
				c-4.267,4.267-18.773,19.627,0.853,46.933c17.92,24.747,26.453,76.8,31.573,107.52l1.707,8.533
				c11.093,64,45.227,84.48,59.733,90.453v53.76c0,5.12,3.413,8.533,8.533,8.533s8.533-3.413,8.533-8.533v-59.733
				c0-4.267-2.56-7.68-6.827-8.533c-1.707-0.853-40.96-10.24-52.907-78.507l-1.707-8.533c-5.973-34.987-14.507-87.04-34.133-114.347
				c-5.973-7.68-11.093-17.92-3.413-23.893c8.533-6.827,25.6-6.827,33.28,0.853c21.333,21.333,40.107,66.56,40.107,87.893
				c0,5.12,3.413,8.533,8.533,8.533s8.533-3.413,8.533-8.533V109.933c0-11.947,9.387-25.6,21.333-25.6s21.333,13.653,21.333,25.6
				v67.413v0.853v85.333c0,5.12,3.413,8.533,8.533,8.533s8.533-3.413,8.533-8.533v-86.187c0.853-11.093,9.387-24.747,21.333-24.747
				c4.267,0,8.533,1.707,12.8,5.973c5.12,5.12,8.533,12.8,8.533,19.627v93.867c0,5.12,3.413,8.533,8.533,8.533
				s8.533-3.413,8.533-8.533v-59.733c0-11.947,9.387-25.6,21.333-25.6c4.267,0,8.533,1.707,12.8,5.973
				c5.12,5.12,8.533,12.8,8.533,19.627v40.107c0,0.853,0,1.707,0,2.56v17.067c0,5.12,3.413,8.533,8.533,8.533
				s8.533-3.413,8.533-8.533v-18.773c0.853-11.093,10.24-23.893,21.333-23.893c11.947,0,21.333,13.653,21.333,25.6v102.4
				c0,50.347,0,50.347-11.947,65.707c-3.413,3.413-6.827,8.533-11.947,14.507c-1.707,1.707-1.707,4.267-1.707,5.973v58.88
				c0,5.12,3.413,8.533,8.533,8.533s8.533-3.413,7.68-8.533v-57.173c3.413-5.12,6.827-8.533,9.387-11.947
				c16.213-19.627,16.213-22.187,16.213-76.8V255C430.825,234.52,414.612,212.333,392.425,212.333z"/>
			<path d="M218.345,50.2c5.12,0,8.533-3.413,8.533-8.533V7.533c0-5.12-3.413-8.533-8.533-8.533s-8.533,3.413-8.533,8.533v34.133
				C209.812,46.787,213.225,50.2,218.345,50.2z"/>
			<path d="M269.545,92.867c0,5.12,3.413,8.533,8.533,8.533h34.133c5.12,0,8.533-3.413,8.533-8.533c0-5.12-3.413-8.533-8.533-8.533
				h-34.133C272.958,84.333,269.545,87.747,269.545,92.867z"/>
			<path d="M115.945,101.4h34.133c5.12,0,8.533-3.413,8.533-8.533c0-5.12-3.413-8.533-8.533-8.533h-34.133
				c-5.12,0-8.533,3.413-8.533,8.533C107.412,97.987,110.825,101.4,115.945,101.4z"/>
			<path d="M261.012,67.267c2.56,0,4.267-0.853,5.973-2.56l25.6-25.6c3.413-3.413,3.413-8.533,0-11.947s-8.533-3.413-11.947,0
				l-25.6,25.6c-3.413,3.413-3.413,8.533,0,11.947C256.745,66.413,258.452,67.267,261.012,67.267z"/>
			<path d="M161.172,64.707c1.707,1.707,3.413,2.56,5.973,2.56s4.267-0.853,5.973-2.56c3.413-3.413,3.413-8.533,0-11.947l-25.6-25.6
				c-3.413-3.413-8.533-3.413-11.947,0s-3.413,8.533,0,11.947L161.172,64.707z"/>
			<path d="M303.678,434.2c5.12,0,8.533-3.413,8.533-8.533s-3.413-8.533-8.533-8.533h-25.6c-5.12,0-8.533,3.413-8.533,8.533
				s3.413,8.533,8.533,8.533H303.678z"/>
			<path d="M312.212,451.267h-42.667c-5.12,0-8.533,3.413-8.533,8.533c0,5.12,3.413,8.533,8.533,8.533h42.667
				c5.12,0,8.533-3.413,8.533-8.533C320.745,454.68,317.332,451.267,312.212,451.267z"/>
		</g>
	</g>
</g>
</svg>