<?xml version="1.0" encoding="iso-8859-1"?>
<!-- Uploaded to: SVG Repo, www.svgrepo.com, Generator: SVG Repo Mixer Tools -->
<svg fill="#000000" height="800px" width="800px" version="1.1" id="Layer_1" xmlns="http://www.w3.org/2000/svg" xmlns:xlink="http://www.w3.org/1999/xlink" 
	 viewBox="0 0 512 512" xml:space="preserve">
<g transform="translate(0 1)">
	<g>
		<g>
			<path d="M392.425,178.2c-7.68,0-15.36,2.56-21.333,7.68v-7.68c0-20.48-16.213-42.667-38.4-42.667c-7.68,0-15.36,2.56-21.333,7.68
				c0-19.627-17.067-41.813-38.4-41.813c-7.68,0-15.36,2.56-21.333,7.68V41.667c0-20.48-16.213-42.667-38.4-42.667
				c-22.187,0-38.4,22.187-38.4,42.667v180.907c-7.68-16.213-17.92-31.573-28.16-41.813c-13.653-13.653-40.96-14.507-56.32-1.707
				c-4.267,4.267-18.773,19.627,0.853,46.933c17.92,25.6,32.427,81.92,32.427,114.347c0,68.267,44.373,98.987,59.733,107.52v54.613
				c0,5.12,3.413,8.533,8.533,8.533s8.533-3.413,8.533-8.533v-59.733c0-3.413-1.707-5.973-5.12-7.68
				c-2.56-0.853-54.613-25.6-54.613-94.72c0-31.573-13.653-93.867-35.84-124.587c-5.973-7.68-11.093-17.92-3.413-23.893
				c8.533-6.827,25.6-6.827,33.28,0.853c21.333,21.333,40.107,66.56,40.107,87.893c0,5.12,3.413,8.533,8.533,8.533
				s8.533-3.413,8.533-8.533V41.667c0-11.947,9.387-25.6,21.333-25.6s21.333,13.653,21.333,25.6V229.4
				c0,5.12,3.413,8.533,8.533,8.533s8.533-3.413,8.533-8.533v-85.333c0-11.947,9.387-25.6,21.333-25.6s21.333,13.653,21.333,25.6
				v93.867c0,5.12,3.413,8.533,8.533,8.533s8.533-3.413,8.533-8.533V178.2c0-11.947,9.387-25.6,21.333-25.6
				s21.333,13.653,21.333,25.6v40.96c0,0.853,0,0.853,0,1.707V255c0,5.12,3.413,8.533,8.533,8.533s8.533-3.413,8.533-8.533v-35.84
				c0.853-11.093,10.24-23.893,21.333-23.893c11.947,0,21.333,13.653,21.333,25.6v119.467c0,64.853,0,64.853-23.893,97.28
				c-1.707,1.707-1.707,4.267-1.707,5.973v58.88c0,5.12,3.413,8.533,8.533,8.533s8.533-3.413,8.533-8.533v-57.173
				c25.6-34.133,25.6-38.4,25.6-104.96V220.867C430.825,200.387,414.612,178.2,392.425,178.2z"/>
			<path d="M302.825,434.2c5.12,0,8.533-3.413,8.533-8.533s-3.413-8.533-8.533-8.533h-25.6c-5.12,0-8.533,3.413-8.533,8.533
				s3.413,8.533,8.533,8.533H302.825z"/>
			<path d="M311.358,451.267h-42.667c-5.12,0-8.533,3.413-8.533,8.533c0,5.12,3.413,8.533,8.533,8.533h42.667
				c5.12,0,8.533-3.413,8.533-8.533C319.892,454.68,316.478,451.267,311.358,451.267z"/>
		</g>
	</g>
</g>
</svg>